<mxfile host="app.diagrams.net" modified="2023-11-27T01:36:42.948Z" agent="Mozilla/5.0 (Windows NT 10.0; Win64; x64; rv:109.0) Gecko/20100101 Firefox/119.0" etag="_QpXT6KU-WBD0iDI5qig" version="22.1.4" type="device">
  <diagram name="Page-1" id="vR4PJ1JkCmzbgvIThcy1">
    <mxGraphModel dx="1302" dy="712" grid="1" gridSize="10" guides="1" tooltips="1" connect="1" arrows="1" fold="1" page="1" pageScale="1" pageWidth="850" pageHeight="1100" math="0" shadow="0">
      <root>
        <mxCell id="0" />
        <mxCell id="1" parent="0" />
        <mxCell id="fH2mKaTh9D_EdJipv0Eg-1" value="Invalid" style="ellipse;whiteSpace=wrap;html=1;aspect=fixed;" vertex="1" parent="1">
          <mxGeometry x="120" y="160" width="120" height="120" as="geometry" />
        </mxCell>
        <mxCell id="fH2mKaTh9D_EdJipv0Eg-2" value="Shared" style="ellipse;whiteSpace=wrap;html=1;aspect=fixed;" vertex="1" parent="1">
          <mxGeometry x="120" y="520" width="120" height="120" as="geometry" />
        </mxCell>
        <mxCell id="fH2mKaTh9D_EdJipv0Eg-3" value="Exclusive" style="ellipse;whiteSpace=wrap;html=1;aspect=fixed;" vertex="1" parent="1">
          <mxGeometry x="480" y="520" width="120" height="120" as="geometry" />
        </mxCell>
        <mxCell id="fH2mKaTh9D_EdJipv0Eg-4" value="&amp;nbsp;Modified" style="ellipse;whiteSpace=wrap;html=1;aspect=fixed;" vertex="1" parent="1">
          <mxGeometry x="480" y="160" width="120" height="120" as="geometry" />
        </mxCell>
        <mxCell id="fH2mKaTh9D_EdJipv0Eg-5" value="" style="shape=flexArrow;endArrow=classic;html=1;rounded=0;strokeColor=#ff0b0b;" edge="1" parent="1">
          <mxGeometry width="50" height="50" relative="1" as="geometry">
            <mxPoint x="460" y="239.79" as="sourcePoint" />
            <mxPoint x="260" y="239.36999999999998" as="targetPoint" />
          </mxGeometry>
        </mxCell>
        <mxCell id="fH2mKaTh9D_EdJipv0Eg-6" value="" style="shape=flexArrow;endArrow=classic;html=1;rounded=0;strokeColor=#ff0b0b;" edge="1" parent="1">
          <mxGeometry width="50" height="50" relative="1" as="geometry">
            <mxPoint x="450" y="530" as="sourcePoint" />
            <mxPoint x="220" y="300" as="targetPoint" />
          </mxGeometry>
        </mxCell>
        <mxCell id="fH2mKaTh9D_EdJipv0Eg-7" value="" style="shape=flexArrow;endArrow=classic;html=1;rounded=0;strokeColor=#ff0b0b;" edge="1" parent="1">
          <mxGeometry width="50" height="50" relative="1" as="geometry">
            <mxPoint x="139.58" y="500" as="sourcePoint" />
            <mxPoint x="139.58" y="300" as="targetPoint" />
          </mxGeometry>
        </mxCell>
        <mxCell id="fH2mKaTh9D_EdJipv0Eg-8" value="BusRd/ --" style="text;html=1;strokeColor=none;fillColor=none;align=center;verticalAlign=middle;whiteSpace=wrap;rounded=0;fontColor=#ff0000;" vertex="1" parent="1">
          <mxGeometry x="330" y="590" width="60" height="30" as="geometry" />
        </mxCell>
        <mxCell id="fH2mKaTh9D_EdJipv0Eg-11" value="BusRdX/Flush" style="text;html=1;strokeColor=none;fillColor=none;align=center;verticalAlign=middle;whiteSpace=wrap;rounded=0;fontColor=#ff0000;" vertex="1" parent="1">
          <mxGeometry x="60" y="380" width="60" height="30" as="geometry" />
        </mxCell>
        <mxCell id="fH2mKaTh9D_EdJipv0Eg-12" value="BusRdX/Flush" style="text;html=1;strokeColor=none;fillColor=none;align=center;verticalAlign=middle;whiteSpace=wrap;rounded=0;fontColor=#ff0000;" vertex="1" parent="1">
          <mxGeometry x="330" y="199.79" width="60" height="30" as="geometry" />
        </mxCell>
        <mxCell id="fH2mKaTh9D_EdJipv0Eg-13" value="" style="shape=flexArrow;endArrow=classic;html=1;rounded=0;strokeColor=#ff0b0b;" edge="1" parent="1">
          <mxGeometry width="50" height="50" relative="1" as="geometry">
            <mxPoint x="460" y="580" as="sourcePoint" />
            <mxPoint x="260" y="579.5799999999999" as="targetPoint" />
          </mxGeometry>
        </mxCell>
        <mxCell id="fH2mKaTh9D_EdJipv0Eg-14" value="BusRdX/Flush" style="text;html=1;strokeColor=none;fillColor=none;align=center;verticalAlign=middle;whiteSpace=wrap;rounded=0;fontColor=#ff0000;" vertex="1" parent="1">
          <mxGeometry x="360" y="510" width="60" height="30" as="geometry" />
        </mxCell>
        <mxCell id="fH2mKaTh9D_EdJipv0Eg-15" value="" style="shape=flexArrow;endArrow=classic;html=1;rounded=0;strokeColor=#ff0b0b;" edge="1" parent="1">
          <mxGeometry width="50" height="50" relative="1" as="geometry">
            <mxPoint x="470" y="290" as="sourcePoint" />
            <mxPoint x="240" y="520" as="targetPoint" />
          </mxGeometry>
        </mxCell>
        <mxCell id="fH2mKaTh9D_EdJipv0Eg-16" value="BusRd/Flush" style="text;html=1;strokeColor=none;fillColor=none;align=center;verticalAlign=middle;whiteSpace=wrap;rounded=0;fontColor=#ff0000;" vertex="1" parent="1">
          <mxGeometry x="390" y="270" width="60" height="30" as="geometry" />
        </mxCell>
        <mxCell id="fH2mKaTh9D_EdJipv0Eg-17" value="" style="shape=flexArrow;endArrow=classic;html=1;rounded=0;strokeColor=#0000ff;" edge="1" parent="1">
          <mxGeometry width="50" height="50" relative="1" as="geometry">
            <mxPoint x="539.5799999999999" y="495.21" as="sourcePoint" />
            <mxPoint x="539.5799999999999" y="294.79" as="targetPoint" />
          </mxGeometry>
        </mxCell>
        <mxCell id="fH2mKaTh9D_EdJipv0Eg-19" value="" style="shape=flexArrow;endArrow=classic;html=1;rounded=0;strokeColor=#0000ff;" edge="1" parent="1">
          <mxGeometry width="50" height="50" relative="1" as="geometry">
            <mxPoint x="200" y="310" as="sourcePoint" />
            <mxPoint x="200" y="500" as="targetPoint" />
          </mxGeometry>
        </mxCell>
        <mxCell id="fH2mKaTh9D_EdJipv0Eg-20" value="PrWr/ --" style="text;html=1;strokeColor=none;fillColor=none;align=center;verticalAlign=middle;whiteSpace=wrap;rounded=0;fontColor=#0000ff;" vertex="1" parent="1">
          <mxGeometry x="550" y="380" width="60" height="30" as="geometry" />
        </mxCell>
        <mxCell id="fH2mKaTh9D_EdJipv0Eg-21" value="PrRd/BusRd" style="text;html=1;strokeColor=none;fillColor=none;align=center;verticalAlign=middle;whiteSpace=wrap;rounded=0;fontColor=#0000ff;" vertex="1" parent="1">
          <mxGeometry x="220" y="380" width="60" height="30" as="geometry" />
        </mxCell>
        <mxCell id="fH2mKaTh9D_EdJipv0Eg-22" value="" style="shape=flexArrow;endArrow=classic;html=1;rounded=0;strokeColor=#0000ff;" edge="1" parent="1">
          <mxGeometry width="50" height="50" relative="1" as="geometry">
            <mxPoint x="260" y="260" as="sourcePoint" />
            <mxPoint x="500" y="500" as="targetPoint" />
          </mxGeometry>
        </mxCell>
        <mxCell id="fH2mKaTh9D_EdJipv0Eg-23" value="PrRdX/BusRd" style="text;html=1;strokeColor=none;fillColor=none;align=center;verticalAlign=middle;whiteSpace=wrap;rounded=0;fontColor=#0000ff;" vertex="1" parent="1">
          <mxGeometry x="310" y="270" width="60" height="30" as="geometry" />
        </mxCell>
        <mxCell id="fH2mKaTh9D_EdJipv0Eg-24" value="" style="shape=flexArrow;endArrow=classic;html=1;rounded=0;strokeColor=#0000ff;" edge="1" parent="1">
          <mxGeometry width="50" height="50" relative="1" as="geometry">
            <mxPoint x="259.17" y="180" as="sourcePoint" />
            <mxPoint x="460" y="180" as="targetPoint" />
          </mxGeometry>
        </mxCell>
        <mxCell id="fH2mKaTh9D_EdJipv0Eg-25" value="PrWr/BusRdX" style="text;html=1;strokeColor=none;fillColor=none;align=center;verticalAlign=middle;whiteSpace=wrap;rounded=0;fontColor=#0000ff;" vertex="1" parent="1">
          <mxGeometry x="330" y="130" width="60" height="30" as="geometry" />
        </mxCell>
      </root>
    </mxGraphModel>
  </diagram>
</mxfile>
